<svg version="1.1" viewBox="0.0 0.0 417.50656167979 130.501312335958" fill="none" stroke="none" stroke-linecap="square" stroke-miterlimit="10" xmlns:xlink="http://www.w3.org/1999/xlink" xmlns="http://www.w3.org/2000/svg"><clipPath id="p.0"><path d="m0 0l417.50656 0l0 130.50131l-417.50656 0l0 -130.50131z" clip-rule="nonzero"/></clipPath><g clip-path="url(#p.0)"><path fill="#000000" fill-opacity="0.0" d="m0 0l417.50656 0l0 130.50131l-417.50656 0z" fill-rule="evenodd"/><path fill="#84c225" d="m39.96194 62.897636l0 0c0 -20.412792 16.738205 -36.96063 37.38583 -36.96063l0 0c9.915337 0 19.424568 3.8940544 26.435768 10.82552c7.0112076 6.9314613 10.950058 16.332542 10.950058 26.135109l0 0c0 20.412796 -16.738205 36.960632 -37.385826 36.960632l0 0c-20.647625 0 -37.38583 -16.547836 -37.38583 -36.960632z" fill-rule="evenodd"/><path fill="#84c225" d="m18.624725 25.177347l0 0c0 -10.19335 8.362051 -18.456692 18.677166 -18.456692l0 0c4.953491 0 9.704102 1.9445386 13.206749 5.4058404c3.5026474 3.4613008 5.470417 8.155832 5.470417 13.050852l0 0c0 10.19335 -8.362053 18.456694 -18.677166 18.456694l0 0c-10.315115 0 -18.677166 -8.263344 -18.677166 -18.456694z" fill-rule="evenodd"/><path fill="#0093dd" d="m5.4457526 101.35911l0 0c0 -13.507057 11.076546 -24.456696 24.740158 -24.456696l0 0c6.5614986 0 12.854254 2.576683 17.493933 7.1632004c4.639679 4.586525 7.2462234 10.807175 7.2462234 17.293495l0 0c0 13.507057 -11.076546 24.456696 -24.740156 24.456696l0 0c-13.663612 0 -24.740158 -10.949638 -24.740158 -24.456696z" fill-rule="evenodd"/><path fill="#000000" fill-opacity="0.0" d="m39.387318 35.103287l95.779526 0l0 73.92126l-95.779526 0z" fill-rule="evenodd"/><path fill="#ffffff" d="m65.9967 85.532036q-4.859379 0 -8.312504 -1.921875q-3.453125 -1.921875 -5.3125 -5.390625q-1.859375 -3.484375 -1.859375 -8.21875q0 -3.53125 1.046875 -6.359375q1.046875 -2.84375 3.046875 -4.875q2.015625 -2.03125 4.890625 -3.140625q2.875 -1.109375 6.500004 -1.109375q2.140625 0 4.328125 0.546875q2.203125 0.53125 3.828125 1.5q1.0625 0.609375 1.4375 1.5q0.390625 0.890625 0.234375 1.796875q-0.140625 0.890625 -0.71875 1.53125q-0.578125 0.640625 -1.4375 0.8125q-0.84375 0.171875 -1.90625 -0.390625q-1.28125 -0.765625 -2.6875 -1.109375q-1.40625 -0.34375 -2.859375 -0.34375q-2.8593788 0 -4.796879 1.140625q-1.9375 1.125 -2.921875 3.265625q-0.984375 2.125 -0.984375 5.234375q0 3.078125 0.984375 5.25q0.984375 2.171875 2.921875 3.3125q1.9375 1.125 4.796879 1.125q1.359375 0 2.78125 -0.34375q1.4375 -0.34375 2.765625 -1.0625q1.109375 -0.5625 1.984375 -0.40625q0.875 0.15625 1.453125 0.78125q0.578125 0.609375 0.71875 1.46875q0.15625 0.84375 -0.1875 1.703125q-0.34375 0.84375 -1.28125 1.4375q-1.578125 1.078125 -3.890625 1.671875q-2.296875 0.59375 -4.5625 0.59375zm16.167831 -0.46875q-1.265625 0 -2.078125 -0.53125q-0.8125 -0.53125 -1.09375 -1.453125q-0.28125 -0.921875 0 -2.03125q0.28125 -1.109375 1.171875 -2.21875l15.53125 -20.34375l0 2.015625l-14.03125 0q-1.40625 0 -2.15625 -0.71875q-0.75 -0.734375 -0.75 -2.0625q0 -1.328125 0.75 -2.03125q0.75 -0.703125 2.15625 -0.703125l17.140625 0q1.328125 0 2.109375 0.546875q0.796875 0.53125 1.09375 1.421875q0.296875 0.890625 0 2.03125q-0.296875 1.125 -1.203125 2.234375l-15.515625 20.296875l0 -1.953125l14.71875 0q1.40625 0 2.140625 0.703125q0.75 0.703125 0.75 2.03125q0 1.359375 -0.75 2.0625q-0.734375 0.703125 -2.140625 0.703125l-17.84375 0z" fill-rule="nonzero"/><path fill="#000000" fill-opacity="0.0" d="m107.25197 35.103287l332.75592 0l0 73.92126l-332.75592 0z" fill-rule="evenodd"/><path fill="#0093dd" d="m133.23634 85.532036q-4.4375 0 -7.796875 -1.9375q-3.34375 -1.9375 -5.203125 -5.4375q-1.859375 -3.5 -1.859375 -8.15625q0 -3.53125 1.046875 -6.359375q1.046875 -2.84375 3.0 -4.875q1.96875 -2.03125 4.71875 -3.140625q2.765625 -1.109375 6.09375 -1.109375q4.515625 0 7.84375 1.921875q3.328125 1.921875 5.171875 5.40625q1.859375 3.46875 1.859375 8.125q0 3.53125 -1.0625 6.390625q-1.0625 2.859375 -3.03125 4.90625q-1.953125 2.046875 -4.6875 3.15625q-2.734375 1.109375 -6.09375 1.109375zm0 -5.625q2.515625 0 4.28125 -1.171875q1.765625 -1.171875 2.71875 -3.40625q0.96875 -2.25 0.96875 -5.328125q0 -4.6875 -2.09375 -7.265625q-2.078125 -2.578125 -5.875 -2.578125q-2.484375 0 -4.28125 1.15625q-1.78125 1.140625 -2.71875 3.359375q-0.9375 2.21875 -0.9375 5.328125q0 4.65625 2.078125 7.28125q2.09375 2.625 5.859375 2.625zm23.329315 5.546875q-1.625 0 -2.484375 -0.890625q-0.84375 -0.90625 -0.84375 -2.53125l0 -23.671875q0 -1.65625 0.875 -2.515625q0.875 -0.859375 2.484375 -0.859375l10.375 0q5.03125 0 7.75 2.546875q2.734375 2.53125 2.734375 7.0625q0 4.515625 -2.734375 7.078125q-2.71875 2.5625 -7.75 2.5625l-7.125 0l0 7.796875q0 1.625 -0.828125 2.53125q-0.828125 0.890625 -2.453125 0.890625zm3.28125 -16.34375l6.015625 0q2.5625 0 3.90625 -1.140625q1.34375 -1.15625 1.34375 -3.375q0 -2.21875 -1.34375 -3.328125q-1.34375 -1.109375 -3.90625 -1.109375l-6.015625 0l0 8.953125zm25.16745 15.953125q-1.671875 0 -2.5625 -0.890625q-0.890625 -0.90625 -0.890625 -2.5625l0 -23.171875q0 -1.65625 0.890625 -2.546875q0.890625 -0.90625 2.5625 -0.90625l14.890625 0q1.28125 0 1.9375 0.671875q0.65625 0.65625 0.65625 1.890625q0 1.28125 -0.65625 1.953125q-0.65625 0.65625 -1.9375 0.65625l-12.03125 0l0 7.03125l11.046875 0q1.328125 0 1.984375 0.671875q0.65625 0.65625 0.65625 1.9375q0 1.28125 -0.65625 1.9375q-0.65625 0.65625 -1.984375 0.65625l-11.046875 0l0 7.515625l12.03125 0q1.28125 0 1.9375 0.65625q0.65625 0.65625 0.65625 1.890625q0 1.28125 -0.65625 1.953125q-0.65625 0.65625 -1.9375 0.65625l-14.890625 0zm25.416367 0.390625q-1.484375 0 -2.28125 -0.828125q-0.78125 -0.84375 -0.78125 -2.375l0 -24.3125q0 -1.625 0.78125 -2.46875q0.796875 -0.859375 2.109375 -0.859375q1.15625 0 1.765625 0.453125q0.625 0.4375 1.4375 1.46875l14.96875 19.0625l-1.140625 0l0 -17.828125q0 -1.5 0.78125 -2.328125q0.796875 -0.828125 2.28125 -0.828125q1.5 0 2.28125 0.828125q0.796875 0.828125 0.796875 2.328125l0 24.609375q0 1.40625 -0.734375 2.25q-0.71875 0.828125 -1.953125 0.828125q-1.203125 0 -1.90625 -0.46875q-0.703125 -0.46875 -1.515625 -1.5l-14.921875 -19.0625l1.109375 0l0 17.828125q0 1.53125 -0.765625 2.375q-0.765625 0.828125 -2.3125 0.828125zm39.807602 0.078125q-1.796875 0 -3.65625 -0.28125q-1.84375 -0.265625 -3.53125 -0.78125q-1.6875 -0.515625 -3.015625 -1.28125q-0.9375 -0.515625 -1.328125 -1.34375q-0.375 -0.828125 -0.265625 -1.6875q0.109375 -0.859375 0.640625 -1.515625q0.53125 -0.65625 1.359375 -0.84375q0.828125 -0.203125 1.859375 0.3125q1.75 0.984375 3.8125 1.453125q2.078125 0.46875 4.125 0.46875q3.109375 0 4.421875 -0.953125q1.328125 -0.96875 1.328125 -2.421875q0 -1.234375 -0.9375 -1.953125q-0.9375 -0.734375 -3.28125 -1.25l-4.8125 -1.015625q-4.109375 -0.859375 -6.09375 -2.921875q-1.96875 -2.0625 -1.96875 -5.4375q0 -2.140625 0.890625 -3.890625q0.890625 -1.75 2.515625 -3.015625q1.625 -1.28125 3.859375 -1.96875q2.234375 -0.6875 4.921875 -0.6875q2.390625 0 4.6875 0.578125q2.3125153 0.578125 4.0625153 1.6875q0.859375 0.515625 1.171875 1.3125q0.328125 0.78125 0.21875 1.578125q-0.109375 0.78125 -0.640625 1.375q-0.53125 0.59375 -1.34375 0.765625q-0.8125 0.171875 -1.96875 -0.375q-1.4062653 -0.734375 -2.9843903 -1.078125q-1.578125 -0.34375 -3.234375 -0.34375q-1.796875 0 -3.0625 0.484375q-1.25 0.46875 -1.921875 1.328125q-0.65625 0.84375 -0.65625 1.953125q0 1.234375 0.890625 2.0q0.90625 0.765625 3.125 1.234375l4.8125 1.03125q4.1875153 0.890625 6.2343903 2.875q2.046875 1.984375 2.046875 5.21875q0 2.140625 -0.859375 3.875q-0.84375 1.71875 -2.46875 2.953125q-1.625 1.234375 -3.8906403 1.90625q-2.25 0.65625 -5.0625 0.65625zm31.170761 0q-4.859375 0 -8.3125 -1.921875q-3.453125 -1.921875 -5.3125 -5.390625q-1.859375 -3.484375 -1.859375 -8.21875q0 -3.53125 1.046875 -6.359375q1.046875 -2.84375 3.046875 -4.875q2.015625 -2.03125 4.890625 -3.140625q2.875 -1.109375 6.5 -1.109375q2.140625 0 4.328125 0.546875q2.203125 0.53125 3.828125 1.5q1.0625 0.609375 1.4375 1.5q0.390625 0.890625 0.234375 1.796875q-0.140625 0.890625 -0.71875 1.53125q-0.578125 0.640625 -1.4375 0.8125q-0.84375 0.171875 -1.90625 -0.390625q-1.28125 -0.765625 -2.6875 -1.109375q-1.40625 -0.34375 -2.859375 -0.34375q-2.859375 0 -4.796875 1.140625q-1.9375 1.125 -2.921875 3.265625q-0.984375 2.125 -0.984375 5.234375q0 3.078125 0.984375 5.25q0.984375 2.171875 2.921875 3.3125q1.9375 1.125 4.796875 1.125q1.359375 0 2.78125 -0.34375q1.4375 -0.34375 2.765625 -1.0625q1.109375 -0.5625 1.984375 -0.40625q0.875 0.15625 1.453125 0.78125q0.578125 0.609375 0.71875 1.46875q0.15625 0.84375 -0.1875 1.703125q-0.34375 0.84375 -1.28125 1.4375q-1.578125 1.078125 -3.890625 1.671875q-2.296875 0.59375 -4.5625 0.59375zm17.926819 -0.078125q-1.625 0 -2.484375 -0.890625q-0.84375 -0.90625 -0.84375 -2.53125l0 -23.671875q0 -1.65625 0.875 -2.515625q0.875 -0.859375 2.484375 -0.859375l10.375 0q5.03125 0 7.75 2.4375q2.734375 2.4375 2.734375 6.78125q0 2.8125 -1.234375 4.859375q-1.234375 2.046875 -3.5625 3.15625q-2.3125 1.109375 -5.6875 1.109375l0.34375 -0.71875l1.75 0q1.78125 0 3.125 0.875q1.34375 0.875 2.328125 2.65625l2.640625 4.90625q0.609375 1.078125 0.5625 2.109375q-0.046875 1.015625 -0.78125 1.65625q-0.71875 0.640625 -2.125 0.640625q-1.40625 0 -2.28125 -0.59375q-0.875 -0.609375 -1.546875 -1.84375l-4.109375 -7.546875q-0.640625 -1.203125 -1.5625 -1.625q-0.90625 -0.421875 -2.234375 -0.421875l-3.234375 0l0 8.609375q0 1.625 -0.828125 2.53125q-0.828125 0.890625 -2.453125 0.890625zm3.28125 -16.8125l5.921875 0q2.65625 0 4.0 -1.0625q1.34375 -1.078125 1.34375 -3.203125q0 -2.09375 -1.34375 -3.15625q-1.34375 -1.0625 -4.0 -1.0625l-5.921875 0l0 8.484375zm26.53247 16.421875q-1.671875 0 -2.5625 -0.890625q-0.890625 -0.90625 -0.890625 -2.5625l0 -23.171875q0 -1.65625 0.890625 -2.546875q0.890625 -0.90625 2.5625 -0.90625l14.890625 0q1.28125 0 1.9375 0.671875q0.65625 0.65625 0.65625 1.890625q0 1.28125 -0.65625 1.953125q-0.65625 0.65625 -1.9375 0.65625l-12.03125 0l0 7.03125l11.046875 0q1.328125 0 1.984375 0.671875q0.65625 0.65625 0.65625 1.9375q0 1.28125 -0.65625 1.9375q-0.65625 0.65625 -1.984375 0.65625l-11.046875 0l0 7.515625l12.03125 0q1.28125 0 1.9375 0.65625q0.65625 0.65625 0.65625 1.890625q0 1.28125 -0.65625 1.953125q-0.65625 0.65625 -1.9375 0.65625l-14.890625 0zm25.806976 0q-1.671875 0 -2.5625 -0.890625q-0.890625 -0.90625 -0.890625 -2.5625l0 -23.171875q0 -1.65625 0.890625 -2.546875q0.890625 -0.90625 2.5625 -0.90625l14.8906555 0q1.28125 0 1.9375 0.671875q0.65625 0.65625 0.65625 1.890625q0 1.28125 -0.65625 1.953125q-0.65625 0.65625 -1.9375 0.65625l-12.0312805 0l0 7.03125l11.0469055 0q1.328125 0 1.984375 0.671875q0.65625 0.65625 0.65625 1.9375q0 1.28125 -0.65625 1.9375q-0.65625 0.65625 -1.984375 0.65625l-11.0469055 0l0 7.515625l12.0312805 0q1.28125 0 1.9375 0.65625q0.65625 0.65625 0.65625 1.890625q0 1.28125 -0.65625 1.953125q-0.65625 0.65625 -1.9375 0.65625l-14.8906555 0zm25.416382 0.390625q-1.484375 0 -2.28125 -0.828125q-0.78125 -0.84375 -0.78125 -2.375l0 -24.3125q0 -1.625 0.78125 -2.46875q0.796875 -0.859375 2.109375 -0.859375q1.15625 0 1.765625 0.453125q0.625 0.4375 1.4375 1.46875l14.96875 19.0625l-1.140625 0l0 -17.828125q0 -1.5 0.78125 -2.328125q0.796875 -0.828125 2.28125 -0.828125q1.5 0 2.28125 0.828125q0.796875 0.828125 0.796875 2.328125l0 24.609375q0 1.40625 -0.734375 2.25q-0.71875 0.828125 -1.953125 0.828125q-1.203125 0 -1.90625 -0.46875q-0.703125 -0.46875 -1.515625 -1.5l-14.921875 -19.0625l1.109375 0l0 17.828125q0 1.53125 -0.765625 2.375q-0.765625 0.828125 -2.3125 0.828125z" fill-rule="nonzero"/></g></svg>