<?xml version="1.0" encoding="UTF-8" standalone="no"?>
<!-- Created with Inkscape (http://www.inkscape.org/) -->

<svg
   version="1.1"
   id="svg1"
   width="325.69333"
   height="81.639999"
   viewBox="0 0 325.69333 81.639999"
   sodipodi:docname="logoUCT_basic.eps"
   xmlns:inkscape="http://www.inkscape.org/namespaces/inkscape"
   xmlns:sodipodi="http://sodipodi.sourceforge.net/DTD/sodipodi-0.dtd"
   xmlns="http://www.w3.org/2000/svg"
   xmlns:svg="http://www.w3.org/2000/svg">
  <defs
     id="defs1" />
  <sodipodi:namedview
     id="namedview1"
     pagecolor="#ffffff"
     bordercolor="#000000"
     borderopacity="0.25"
     inkscape:showpageshadow="2"
     inkscape:pageopacity="0.0"
     inkscape:pagecheckerboard="0"
     inkscape:deskcolor="#d1d1d1">
    <inkscape:page
       x="0"
       y="0"
       inkscape:label="1"
       id="page1"
       width="325.69333"
       height="81.639999"
       margin="0"
       bleed="0" />
  </sodipodi:namedview>
  <g
     id="g1"
     inkscape:groupmode="layer"
     inkscape:label="1">
    <path
       id="path1"
       d="M 519.965,516.676 H 95.668 V 92.3945 H 519.965 V 516.676"
       style="fill:#f03c1f;fill-opacity:1;fill-rule:evenodd;stroke:none"
       transform="matrix(0.13333333,0,0,-0.13333333,0,81.64)" />
    <path
       id="path2"
       d="m 367.461,361.402 c -8.043,8.067 -8.02,21.25 0.074,29.356 l 71.133,71.113 H 403.586 L 350,408.277 c -17.789,-17.785 -17.812,-46.601 -0.074,-64.414 l 16.191,-16.203 c 35.625,-35.625 35.625,-93.398 0,-129.004 -17.812,-17.812 -41.144,-26.718 -64.496,-26.718 -23.344,0 -46.687,8.906 -64.508,26.718 -35.625,35.625 -35.625,93.379 0,129.004 l 64.496,64.492 69.715,69.719 h -35.07 l -52.176,-52.187 -64.5,-64.493 C 174.34,299.965 174.34,226.352 219.57,181.117 c 21.918,-21.914 51.055,-33.984 82.051,-33.984 30.992,0 60.129,12.07 82.031,33.984 21.918,21.895 33.981,51.035 33.989,82.012 0,31.016 -12.071,60.156 -33.989,82.062 l -16.191,16.211"
       style="fill:#ffffff;fill-opacity:1;fill-rule:nonzero;stroke:none"
       transform="matrix(0.13333333,0,0,-0.13333333,0,81.64)" />
    <path
       id="path3"
       d="m 599.906,460.133 h 19.602 v -50.621 c 0,-8.403 5.488,-12.879 13.89,-12.879 8.399,0 13.887,4.476 13.887,12.879 v 50.621 h 19.602 v -50.621 c 0,-18.032 -13.219,-30.801 -33.375,-30.801 -20.387,0 -33.606,12.769 -33.606,30.801 v 50.621"
       style="fill:#ffffff;fill-opacity:1;fill-rule:nonzero;stroke:none"
       transform="matrix(0.13333333,0,0,-0.13333333,0,81.64)" />
    <path
       id="path4"
       d="m 685.141,460.133 h 19.824 l 22.176,-37.406 c 3.136,-5.266 6.722,-13.664 6.722,-13.664 h 0.219 c 0,0 -0.894,8.625 -0.894,13.664 v 37.406 h 19.601 v -80.078 h -19.715 l -22.289,37.293 c -3.133,5.265 -6.719,13.668 -6.719,13.668 h -0.222 c 0,0 0.898,-8.629 0.898,-13.668 v -37.293 h -19.601 v 80.078"
       style="fill:#ffffff;fill-opacity:1;fill-rule:nonzero;stroke:none"
       transform="matrix(0.13333333,0,0,-0.13333333,0,81.64)" />
    <path
       id="path5"
       d="m 772.164,460.133 h 19.598 v -80.078 h -19.598 v 80.078"
       style="fill:#ffffff;fill-opacity:1;fill-rule:nonzero;stroke:none"
       transform="matrix(0.13333333,0,0,-0.13333333,0,81.64)" />
    <path
       id="path6"
       d="m 801.055,460.133 h 21.281 l 14.113,-45.582 c 1.571,-5.039 3.024,-12.879 3.024,-12.879 h 0.222 c 0,0 1.457,7.84 3.024,12.879 l 14.336,45.582 H 878 l -28.227,-80.078 h -20.378 l -28.34,80.078"
       style="fill:#ffffff;fill-opacity:1;fill-rule:nonzero;stroke:none"
       transform="matrix(0.13333333,0,0,-0.13333333,0,81.64)" />
    <path
       id="path7"
       d="m 887.301,460.133 h 50.176 v -16.797 h -30.579 v -14.563 h 24.415 v -16.8 h -24.415 v -15.118 h 32.145 v -16.8 h -51.742 v 80.078"
       style="fill:#ffffff;fill-opacity:1;fill-rule:nonzero;stroke:none"
       transform="matrix(0.13333333,0,0,-0.13333333,0,81.64)" />
    <path
       id="path8"
       d="m 953.711,460.133 h 27.887 c 8.175,0 12.093,-0.559 15.57,-1.906 9.062,-3.469 14.782,-11.645 14.782,-23.293 0,-8.512 -4.03,-17.809 -11.985,-21.836 v -0.227 c 0,0 1.125,-1.461 3.025,-4.82 l 15.57,-27.996 h -21.841 l -14.223,26.992 h -9.183 v -26.992 h -19.602 z m 28.109,-36.285 c 6.278,0 10.192,3.472 10.192,9.851 0,6.051 -2.239,9.637 -12.094,9.637 h -6.605 v -19.488 h 8.507"
       style="fill:#ffffff;fill-opacity:1;fill-rule:nonzero;stroke:none"
       transform="matrix(0.13333333,0,0,-0.13333333,0,81.64)" />
    <path
       id="path9"
       d="m 1035.36,405.027 c 0,0 9.07,-8.285 19.15,-8.285 4.03,0 8.4,1.571 8.4,6.383 0,9.523 -36.06,9.184 -36.06,33.824 0,14.785 12.43,24.531 28.33,24.531 17.25,0 25.76,-9.074 25.76,-9.074 l -8.28,-16.015 c 0,0 -8.07,7.054 -17.7,7.054 -4.03,0 -8.51,-1.789 -8.51,-6.273 0,-10.078 36.06,-8.285 36.06,-33.598 0,-13.332 -10.19,-24.863 -28.22,-24.863 -18.82,0 -29.24,11.422 -29.24,11.422 l 10.31,14.894"
       style="fill:#ffffff;fill-opacity:1;fill-rule:nonzero;stroke:none"
       transform="matrix(0.13333333,0,0,-0.13333333,0,81.64)" />
    <path
       id="path10"
       d="m 1096.51,460.133 h 19.6 v -80.078 h -19.6 v 80.078"
       style="fill:#ffffff;fill-opacity:1;fill-rule:nonzero;stroke:none"
       transform="matrix(0.13333333,0,0,-0.13333333,0,81.64)" />
    <path
       id="path11"
       d="m 1150.82,443.336 h -24.3 v 16.797 h 68.21 v -16.797 h -24.3 v -63.281 h -19.61 v 63.281"
       style="fill:#ffffff;fill-opacity:1;fill-rule:nonzero;stroke:none"
       transform="matrix(0.13333333,0,0,-0.13333333,0,81.64)" />
    <path
       id="path12"
       d="m 1225.64,412.871 -26.44,47.262 h 22.3 l 9.07,-19.266 c 2.57,-5.484 4.81,-11.535 4.81,-11.535 h 0.23 c 0,0 2.24,6.051 4.81,11.535 l 8.96,19.266 h 22.29 l -26.43,-47.262 v -32.816 h -19.6 v 32.816"
       style="fill:#ffffff;fill-opacity:1;fill-rule:nonzero;stroke:none"
       transform="matrix(0.13333333,0,0,-0.13333333,0,81.64)" />
    <path
       id="path13"
       d="m 1343.79,461.48 c 24.2,0 41.89,-17.921 41.89,-40.882 0,-23.524 -17.69,-41.887 -41.89,-41.887 -24.18,0 -41.88,18.363 -41.88,41.887 0,22.961 17.7,40.882 41.88,40.882 z m 0,-64.847 c 11.99,0 21.62,10.301 21.62,23.965 0,13.101 -9.63,22.961 -21.62,22.961 -11.98,0 -21.61,-9.86 -21.61,-22.961 0,-13.664 9.63,-23.965 21.61,-23.965"
       style="fill:#ffffff;fill-opacity:1;fill-rule:nonzero;stroke:none"
       transform="matrix(0.13333333,0,0,-0.13333333,0,81.64)" />
    <path
       id="path14"
       d="m 1399.57,460.133 h 49.06 v -16.797 h -29.46 v -16.805 h 24.42 V 409.73 h -24.42 v -29.675 h -19.6 v 80.078"
       style="fill:#ffffff;fill-opacity:1;fill-rule:nonzero;stroke:none"
       transform="matrix(0.13333333,0,0,-0.13333333,0,81.64)" />
    <path
       id="path15"
       d="m 637.539,343.48 c 19.824,0 30.02,-11.312 30.02,-11.312 l -9.075,-14.785 c 0,0 -8.957,8.18 -20.046,8.18 -15.348,0 -22.625,-11.313 -22.625,-22.852 0,-11.871 7.839,-24.078 22.625,-24.078 12.093,0 21.281,9.851 21.281,9.851 l 10.078,-14.336 c 0,0 -11.313,-13.433 -32.258,-13.433 -25.09,0 -41.996,17.805 -41.996,41.551 0,23.297 17.918,41.214 41.996,41.214"
       style="fill:#ffffff;fill-opacity:1;fill-rule:nonzero;stroke:none"
       transform="matrix(0.13333333,0,0,-0.13333333,0,81.64)" />
    <path
       id="path16"
       d="m 682.23,342.133 h 19.602 v -32.031 h 29.121 v 32.031 h 19.598 v -80.078 h -19.598 v 31.359 H 701.832 V 262.055 H 682.23 v 80.078"
       style="fill:#ffffff;fill-opacity:1;fill-rule:nonzero;stroke:none"
       transform="matrix(0.13333333,0,0,-0.13333333,0,81.64)" />
    <path
       id="path17"
       d="m 769.922,342.133 h 50.176 V 325.336 H 789.52 v -14.559 h 24.418 v -16.8 H 789.52 v -15.122 h 32.144 v -16.8 h -51.742 v 80.078"
       style="fill:#ffffff;fill-opacity:1;fill-rule:nonzero;stroke:none"
       transform="matrix(0.13333333,0,0,-0.13333333,0,81.64)" />
    <path
       id="path18"
       d="m 840.48,342.133 h 21.282 l 11.644,-33.82 c 1.793,-5.153 4.035,-13.215 4.035,-13.215 h 0.227 c 0,0 2.234,8.062 4.027,13.215 l 11.649,33.82 h 21.281 l 6.492,-80.078 H 901.52 l -2.461,36.066 c -0.45,6.043 0,13.438 0,13.438 h -0.227 c 0,0 -2.687,-8.399 -4.48,-13.438 l -8.399,-23.183 h -16.805 l -8.394,23.183 c -1.793,5.039 -4.481,13.438 -4.481,13.438 h -0.222 c 0,0 0.445,-7.395 0,-13.438 l -2.465,-36.066 h -19.715 l 6.609,80.078"
       style="fill:#ffffff;fill-opacity:1;fill-rule:nonzero;stroke:none"
       transform="matrix(0.13333333,0,0,-0.13333333,0,81.64)" />
    <path
       id="path19"
       d="m 938.039,342.133 h 19.598 v -80.078 h -19.598 v 80.078"
       style="fill:#ffffff;fill-opacity:1;fill-rule:nonzero;stroke:none"
       transform="matrix(0.13333333,0,0,-0.13333333,0,81.64)" />
    <path
       id="path20"
       d="m 981.371,287.031 c 0,0 9.074,-8.285 19.159,-8.285 4.02,0 8.4,1.567 8.4,6.383 0,9.519 -36.071,9.184 -36.071,33.82 0,14.785 12.434,24.531 28.341,24.531 17.25,0 25.76,-9.07 25.76,-9.07 l -8.29,-16.015 c 0,0 -8.06,7.054 -17.7,7.054 -4.029,0 -8.509,-1.793 -8.509,-6.273 0,-10.078 36.059,-8.285 36.059,-33.602 0,-13.328 -10.18,-24.859 -28.22,-24.859 -18.816,0 -29.23,11.418 -29.23,11.418 l 10.301,14.898"
       style="fill:#ffffff;fill-opacity:1;fill-rule:nonzero;stroke:none"
       transform="matrix(0.13333333,0,0,-0.13333333,0,81.64)" />
    <path
       id="path21"
       d="m 1057.87,325.336 h -24.31 v 16.797 h 68.21 v -16.797 h -24.31 v -63.281 h -19.59 v 63.281"
       style="fill:#ffffff;fill-opacity:1;fill-rule:nonzero;stroke:none"
       transform="matrix(0.13333333,0,0,-0.13333333,0,81.64)" />
    <path
       id="path22"
       d="m 1112.19,342.133 h 27.88 c 8.18,0 12.1,-0.555 15.57,-1.903 9.07,-3.472 14.79,-11.644 14.79,-23.296 0,-8.512 -4.04,-17.809 -11.99,-21.836 v -0.223 c 0,0 1.12,-1.461 3.02,-4.82 l 15.58,-28 h -21.84 l -14.23,26.992 h -9.18 v -26.992 h -19.6 z m 28.11,-36.281 c 6.27,0 10.19,3.468 10.19,9.851 0,6.051 -2.24,9.633 -12.1,9.633 h -6.6 v -19.484 h 8.51"
       style="fill:#ffffff;fill-opacity:1;fill-rule:nonzero;stroke:none"
       transform="matrix(0.13333333,0,0,-0.13333333,0,81.64)" />
    <path
       id="path23"
       d="m 1204.25,294.875 -26.43,47.258 h 22.29 l 9.07,-19.262 c 2.57,-5.488 4.82,-11.539 4.82,-11.539 h 0.22 c 0,0 2.24,6.051 4.81,11.539 l 8.96,19.262 h 22.29 l -26.43,-47.258 v -32.82 h -19.6 v 32.82"
       style="fill:#ffffff;fill-opacity:1;fill-rule:nonzero;stroke:none"
       transform="matrix(0.13333333,0,0,-0.13333333,0,81.64)" />
    <path
       id="path24"
       d="m 1326.1,278.855 h -24.97 l -4.82,-16.8 h -20.16 l 27.21,80.078 h 20.62 l 27.21,-80.078 h -20.16 z m -12.55,45.028 c 0,0 -1.79,-8.742 -3.24,-13.781 l -4.59,-15.567 h 15.79 l -4.48,15.567 c -1.46,5.039 -3.25,13.781 -3.25,13.781 h -0.23"
       style="fill:#ffffff;fill-opacity:1;fill-rule:nonzero;stroke:none"
       transform="matrix(0.13333333,0,0,-0.13333333,0,81.64)" />
    <path
       id="path25"
       d="m 1360.71,342.133 h 19.82 l 22.18,-37.406 c 3.13,-5.262 6.72,-13.661 6.72,-13.661 h 0.22 c 0,0 -0.9,8.622 -0.9,13.661 v 37.406 h 19.61 v -80.078 h -19.72 l -22.29,37.297 c -3.13,5.261 -6.72,13.668 -6.72,13.668 h -0.22 c 0,0 0.9,-8.629 0.9,-13.668 v -37.297 h -19.6 v 80.078"
       style="fill:#ffffff;fill-opacity:1;fill-rule:nonzero;stroke:none"
       transform="matrix(0.13333333,0,0,-0.13333333,0,81.64)" />
    <path
       id="path26"
       d="m 1447.73,342.133 h 28.45 c 25.2,0 41.32,-14.668 41.32,-39.867 0,-25.2 -16.12,-40.211 -41.32,-40.211 h -28.45 z m 27.66,-63.278 c 13.56,0 21.84,8.063 21.84,23.411 0,15.23 -8.62,23.07 -21.84,23.07 h -8.06 v -46.481 h 8.06"
       style="fill:#ffffff;fill-opacity:1;fill-rule:nonzero;stroke:none"
       transform="matrix(0.13333333,0,0,-0.13333333,0,81.64)" />
    <path
       id="path27"
       d="m 1573.39,325.336 h -24.3 v 16.797 h 68.21 v -16.797 h -24.31 v -63.281 h -19.6 v 63.281"
       style="fill:#ffffff;fill-opacity:1;fill-rule:nonzero;stroke:none"
       transform="matrix(0.13333333,0,0,-0.13333333,0,81.64)" />
    <path
       id="path28"
       d="m 1627.71,342.133 h 50.17 v -16.797 h -30.58 v -14.559 h 24.42 v -16.8 h -24.42 v -15.122 h 32.15 v -16.8 h -51.74 v 80.078"
       style="fill:#ffffff;fill-opacity:1;fill-rule:nonzero;stroke:none"
       transform="matrix(0.13333333,0,0,-0.13333333,0,81.64)" />
    <path
       id="path29"
       d="m 1730.63,343.48 c 19.82,0 30.02,-11.312 30.02,-11.312 l -9.07,-14.785 c 0,0 -8.96,8.18 -20.05,8.18 -15.35,0 -22.62,-11.313 -22.62,-22.852 0,-11.871 7.83,-24.078 22.62,-24.078 12.1,0 21.28,9.851 21.28,9.851 l 10.08,-14.336 c 0,0 -11.31,-13.433 -32.26,-13.433 -25.09,0 -42,17.805 -42,41.551 0,23.297 17.92,41.214 42,41.214"
       style="fill:#ffffff;fill-opacity:1;fill-rule:nonzero;stroke:none"
       transform="matrix(0.13333333,0,0,-0.13333333,0,81.64)" />
    <path
       id="path30"
       d="m 1775.32,342.133 h 19.6 v -32.031 h 29.12 v 32.031 h 19.6 v -80.078 h -19.6 v 31.359 h -29.12 v -31.359 h -19.6 v 80.078"
       style="fill:#ffffff;fill-opacity:1;fill-rule:nonzero;stroke:none"
       transform="matrix(0.13333333,0,0,-0.13333333,0,81.64)" />
    <path
       id="path31"
       d="m 1863.02,342.133 h 19.82 l 22.18,-37.406 c 3.13,-5.262 6.72,-13.661 6.72,-13.661 h 0.22 c 0,0 -0.9,8.622 -0.9,13.661 v 37.406 h 19.6 v -80.078 h -19.7 l -22.29,37.297 c -3.13,5.261 -6.72,13.668 -6.72,13.668 h -0.22 c 0,0 0.89,-8.629 0.89,-13.668 v -37.297 h -19.6 v 80.078"
       style="fill:#ffffff;fill-opacity:1;fill-rule:nonzero;stroke:none"
       transform="matrix(0.13333333,0,0,-0.13333333,0,81.64)" />
    <path
       id="path32"
       d="m 1986.46,343.48 c 24.18,0 41.88,-17.917 41.88,-40.882 0,-23.52 -17.7,-41.883 -41.88,-41.883 -24.2,0 -41.9,18.363 -41.9,41.883 0,22.965 17.7,40.882 41.9,40.882 z m 0,-64.847 c 11.98,0 21.61,10.305 21.61,23.965 0,13.105 -9.63,22.965 -21.61,22.965 -11.99,0 -21.62,-9.86 -21.62,-22.965 0,-13.66 9.63,-23.965 21.62,-23.965"
       style="fill:#ffffff;fill-opacity:1;fill-rule:nonzero;stroke:none"
       transform="matrix(0.13333333,0,0,-0.13333333,0,81.64)" />
    <path
       id="path33"
       d="m 2042.22,342.133 h 19.6 v -63.278 h 32.7 v -16.8 h -52.3 v 80.078"
       style="fill:#ffffff;fill-opacity:1;fill-rule:nonzero;stroke:none"
       transform="matrix(0.13333333,0,0,-0.13333333,0,81.64)" />
    <path
       id="path34"
       d="m 2141.67,343.48 c 24.19,0 41.88,-17.917 41.88,-40.882 0,-23.52 -17.69,-41.883 -41.88,-41.883 -24.2,0 -41.9,18.363 -41.9,41.883 0,22.965 17.7,40.882 41.9,40.882 z m 0,-64.847 c 11.98,0 21.61,10.305 21.61,23.965 0,13.105 -9.63,22.965 -21.61,22.965 -11.98,0 -21.62,-9.86 -21.62,-22.965 0,-13.66 9.64,-23.965 21.62,-23.965"
       style="fill:#ffffff;fill-opacity:1;fill-rule:nonzero;stroke:none"
       transform="matrix(0.13333333,0,0,-0.13333333,0,81.64)" />
    <path
       id="path35"
       d="m 2234.07,343.48 c 20.49,0 30.81,-10.644 30.81,-10.644 l -9.42,-14.668 c 0,0 -8.17,7.395 -19.48,7.395 -16.81,0 -23.64,-10.754 -23.64,-22.629 0,-15.231 10.53,-24.301 22.96,-24.301 9.41,0 16.24,5.824 16.24,5.824 v 6.156 h -11.31 v 16.692 h 28.66 v -45.25 h -16.34 v 2.242 c 0,1.68 0.11,3.359 0.11,3.359 h -0.22 c 0,0 -7.73,-6.941 -21.06,-6.941 -20.49,0 -39.31,15.34 -39.31,41.551 0,23.297 17.58,41.214 42,41.214"
       style="fill:#ffffff;fill-opacity:1;fill-rule:nonzero;stroke:none"
       transform="matrix(0.13333333,0,0,-0.13333333,0,81.64)" />
    <path
       id="path36"
       d="m 2300.38,294.875 -26.43,47.258 h 22.28 l 9.07,-19.262 c 2.58,-5.488 4.83,-11.539 4.83,-11.539 h 0.21 c 0,0 2.25,6.051 4.83,11.539 l 8.95,19.262 h 22.29 l -26.43,-47.258 v -32.82 h -19.6 v 32.82"
       style="fill:#ffffff;fill-opacity:1;fill-rule:nonzero;stroke:none"
       transform="matrix(0.13333333,0,0,-0.13333333,0,81.64)" />
    <path
       id="path37"
       d="m 601.031,224.133 h 33.262 c 15.57,0 26.098,-11.422 26.098,-27.551 0,-16.129 -10.528,-27.777 -26.098,-27.777 h -13.664 v -24.75 h -19.598 z m 29.227,-38.528 c 6.836,0 10.195,4.59 10.195,10.977 0,6.383 -3.359,10.754 -9.855,10.754 h -9.969 v -21.731 h 9.629"
       style="fill:#ffffff;fill-opacity:1;fill-rule:nonzero;stroke:none"
       transform="matrix(0.13333333,0,0,-0.13333333,0,81.64)" />
    <path
       id="path38"
       d="m 672.598,224.133 h 27.886 c 8.18,0 12.094,-0.559 15.571,-1.906 9.066,-3.473 14.781,-11.645 14.781,-23.297 0,-8.508 -4.027,-17.805 -11.984,-21.836 v -0.223 c 0,0 1.121,-1.457 3.023,-4.82 l 15.57,-27.996 h -21.84 l -14.222,26.992 h -9.188 v -26.992 h -19.597 z m 28.109,-36.285 c 6.273,0 10.191,3.468 10.191,9.851 0,6.051 -2.234,9.637 -12.093,9.637 h -6.61 v -19.488 h 8.512"
       style="fill:#ffffff;fill-opacity:1;fill-rule:nonzero;stroke:none"
       transform="matrix(0.13333333,0,0,-0.13333333,0,81.64)" />
    <path
       id="path39"
       d="m 789.965,160.855 h -24.977 l -4.812,-16.8 h -20.16 l 27.214,80.078 h 20.614 l 27.211,-80.078 h -20.157 z m -12.543,45.02 c 0,0 -1.793,-8.734 -3.246,-13.773 l -4.59,-15.571 h 15.789 l -4.48,15.571 c -1.457,5.039 -3.25,13.773 -3.25,13.773 h -0.223"
       style="fill:#ffffff;fill-opacity:1;fill-rule:nonzero;stroke:none"
       transform="matrix(0.13333333,0,0,-0.13333333,0,81.64)" />
    <path
       id="path40"
       d="m 860.746,225.48 c 20.5,0 30.801,-10.64 30.801,-10.64 l -9.406,-14.672 c 0,0 -8.176,7.391 -19.489,7.391 -16.797,0 -23.632,-10.75 -23.632,-22.625 0,-15.231 10.531,-24.305 22.96,-24.305 9.407,0 16.243,5.82 16.243,5.82 v 6.164 H 866.91 v 16.688 h 28.672 V 144.055 H 879.23 v 2.238 c 0,1.68 0.11,3.359 0.11,3.359 h -0.223 c 0,0 -7.73,-6.941 -21.054,-6.941 -20.5,0 -39.313,15.34 -39.313,41.551 0,23.297 17.582,41.218 41.996,41.218"
       style="fill:#ffffff;fill-opacity:1;fill-rule:nonzero;stroke:none"
       transform="matrix(0.13333333,0,0,-0.13333333,0,81.64)" />
    <path
       id="path41"
       d="m 909.805,224.133 h 19.597 v -50.621 c 0,-8.407 5.493,-12.883 13.895,-12.883 8.398,0 13.887,4.476 13.887,12.883 v 50.621 h 19.597 v -50.621 c 0,-18.032 -13.218,-30.801 -33.375,-30.801 -20.383,0 -33.601,12.769 -33.601,30.801 v 50.621"
       style="fill:#ffffff;fill-opacity:1;fill-rule:nonzero;stroke:none"
       transform="matrix(0.13333333,0,0,-0.13333333,0,81.64)" />
    <path
       id="path42"
       d="m 995.035,224.133 h 50.175 v -16.797 h -30.58 v -14.563 h 24.42 v -16.8 h -24.42 v -15.118 h 32.15 v -16.8 h -51.745 v 80.078"
       style="fill:#ffffff;fill-opacity:1;fill-rule:nonzero;stroke:none"
       transform="matrix(0.13333333,0,0,-0.13333333,0,81.64)" />
  </g>
</svg>
